<svg xmlns="http://www.w3.org/2000/svg" width="40" height="40" fill="none"><path stroke="#39393D" stroke-linecap="round" stroke-linejoin="round" stroke-width="2" d="M30.83 26.83l2.9-3.38a8.71 8.71 0 002.1-5.67A6.78 6.78 0 0029.05 11H26"/><path fill="url(#paint0_linear)" stroke="url(#paint1_linear)" stroke-width=".75" d="M6.33 10.38h6.53L9.55 22.91 5.73 11.17c-.11-.4.19-.8.6-.8z"/><path fill="url(#paint2_linear)" d="M29.08 11.62a100.5 100.5 0 012.55 22.44c0 .88-.69 1.56-1.5 1.56H9.87c-.81 0-1.5-.68-1.5-1.56 0-7.54.87-15.1 2.55-22.44a9.16 9.16 0 018.8-7.24h.55c4.18 0 7.84 3 8.8 7.24z"/><path fill="url(#paint3_radial)" d="M29.08 11.62a100.5 100.5 0 012.55 22.44c0 .88-.69 1.56-1.5 1.56H9.87c-.81 0-1.5-.68-1.5-1.56 0-7.54.87-15.1 2.55-22.44a9.16 9.16 0 018.8-7.24h.55c4.18 0 7.84 3 8.8 7.24z"/><path stroke="url(#paint4_linear)" stroke-width=".75" d="M29.08 11.62a100.5 100.5 0 012.55 22.44c0 .88-.69 1.56-1.5 1.56H9.87c-.81 0-1.5-.68-1.5-1.56 0-7.54.87-15.1 2.55-22.44a9.16 9.16 0 018.8-7.24h.55c4.18 0 7.84 3 8.8 7.24z"/><rect width="23.25" height="4.25" x="8.38" y="32.38" fill="url(#paint5_linear)" stroke="url(#paint6_linear)" stroke-width=".75" rx=".63"/><path fill="url(#paint7_linear)" stroke="url(#paint8_linear)" stroke-width=".75" d="M20.27 4.38c3.49 0 6.6 2.09 8.11 5.25H11.61a9.05 9.05 0 018.12-5.26h.54z"/><path fill="url(#paint9_radial)" d="M27 9H13c1.13-2.38 3.8-4 6.79-4h.42c3 0 5.66 1.62 6.79 4z"/><defs><linearGradient id="paint0_linear" x1="8" x2="11.5" y1="11.5" y2="14" gradientUnits="userSpaceOnUse"><stop offset=".02" stop-color="#fff"/><stop offset=".89" stop-color="#DCDCDC"/></linearGradient><linearGradient id="paint1_linear" x1="9.34" x2="9.34" y1="10" y2="24.25" gradientUnits="userSpaceOnUse"><stop stop-color="#C2C2C2"/><stop offset="1" stop-color="#A1A1A1"/></linearGradient><linearGradient id="paint2_linear" x1="20" x2="20" y1="4" y2="36" gradientUnits="userSpaceOnUse"><stop offset=".02" stop-color="#fff"/><stop offset="1" stop-color="#CECECE"/></linearGradient><linearGradient id="paint4_linear" x1="20" x2="20" y1="4" y2="36" gradientUnits="userSpaceOnUse"><stop stop-color="#C2C2C2"/><stop offset="1" stop-color="#A1A1A1"/></linearGradient><linearGradient id="paint5_linear" x1="20" x2="20" y1="32" y2="37" gradientUnits="userSpaceOnUse"><stop offset=".02" stop-color="#5A5B61"/><stop offset=".93" stop-color="#47484C"/></linearGradient><linearGradient id="paint6_linear" x1="20" x2="20" y1="32" y2="37" gradientUnits="userSpaceOnUse"><stop offset=".13" stop-color="#EBE9E7"/><stop offset=".18" stop-color="#47484C"/><stop offset="1" stop-color="#39393D"/></linearGradient><linearGradient id="paint7_linear" x1="20" x2="20" y1="4" y2="10" gradientUnits="userSpaceOnUse"><stop offset=".02" stop-color="#5A5B61"/><stop offset=".93" stop-color="#47484C"/></linearGradient><linearGradient id="paint8_linear" x1="20" x2="20" y1="4" y2="10" gradientUnits="userSpaceOnUse"><stop stop-color="#47484C"/><stop offset="1" stop-color="#39393D"/></linearGradient><radialGradient id="paint3_radial" cx="0" cy="0" r="1" gradientTransform="matrix(0 -26 9.84848 0 20 15.5)" gradientUnits="userSpaceOnUse"><stop offset=".21" stop-color="#fff"/><stop offset=".81" stop-color="#fff" stop-opacity="0"/></radialGradient><radialGradient id="paint9_radial" cx="0" cy="0" r="1" gradientTransform="matrix(0 -8 9.68599 0 20 13)" gradientUnits="userSpaceOnUse"><stop offset=".58" stop-color="#616369" stop-opacity="0"/><stop offset=".91" stop-color="#8B8B8B"/><stop offset=".96" stop-color="#616369" stop-opacity="0"/></radialGradient></defs></svg>