<svg xmlns="http://www.w3.org/2000/svg" width="40" height="40" fill="none"><circle cx="20" cy="20" r="12.63" fill="url(#paint0_linear)" stroke="url(#paint1_linear)" stroke-width=".75"/><circle cx="20" cy="20" r="11.5" fill="url(#paint2_linear)"/><circle cx="20" cy="20.5" r="9" fill="url(#paint3_radial)" transform="rotate(-180 20 20.5)"/><circle cx="20" cy="19.75" r="9" fill="url(#paint4_radial)"/><path fill="url(#paint5_linear)" d="M37 27.32V12.83l-.1.05a4.09 4.09 0 00-2.4 3.72v2.08c0 .85.27 1.68.76 2.38l.38.52v5.74a.68.68 0 001.36 0z"/><path fill="url(#paint6_linear)" d="M1.84 13a.34.34 0 00-.34.34v4.33a2 2 0 001.33 1.88v7.78a.67.67 0 101.34 0v-7.78a2 2 0 001.33-1.88v-4.33a.34.34 0 00-.68-.01l-.15 4.34-.04.15c-.08.3-.51.3-.6 0L4 17.51l-.14-4.18a.35.35 0 00-.7 0l-.14 4.18c0 .1-.02.2-.05.31-.08.3-.51.3-.59 0l-.04-.15-.15-4.34a.34.34 0 00-.34-.33z"/><defs><linearGradient id="paint0_linear" x1="20" x2="20" y1="7" y2="33" gradientUnits="userSpaceOnUse"><stop offset=".02" stop-color="#fff"/><stop offset=".89" stop-color="#DCDCDC"/><stop offset=".93" stop-color="#F5F3F1"/></linearGradient><linearGradient id="paint1_linear" x1="20" x2="20" y1="7" y2="33" gradientUnits="userSpaceOnUse"><stop stop-color="#C2C2C2"/><stop offset="1" stop-color="#A1A1A1"/></linearGradient><linearGradient id="paint2_linear" x1="20" x2="20" y1="8.5" y2="31.5" gradientUnits="userSpaceOnUse"><stop stop-color="#F9F9FA"/><stop offset="1" stop-color="#F0F0F0"/></linearGradient><linearGradient id="paint5_linear" x1="35.75" x2="35.75" y1="13.52" y2="29.99" gradientUnits="userSpaceOnUse"><stop stop-color="#47484C"/><stop offset="1" stop-color="#39393D"/></linearGradient><linearGradient id="paint6_linear" x1="3.5" x2="3.5" y1="13.66" y2="29.66" gradientUnits="userSpaceOnUse"><stop stop-color="#47484C"/><stop offset="1" stop-color="#39393D"/></linearGradient><radialGradient id="paint3_radial" cx="0" cy="0" r="1" gradientTransform="rotate(90 -.49 20.49) scale(9.47368)" gradientUnits="userSpaceOnUse"><stop offset=".9" stop-color="#fff"/><stop offset="1" stop-color="#fff" stop-opacity="0"/></radialGradient><radialGradient id="paint4_radial" cx="0" cy="0" r="1" gradientTransform="matrix(0 9 -9 0 20 19.75)" gradientUnits="userSpaceOnUse"><stop offset=".83" stop-color="#CECECE" stop-opacity=".65"/><stop offset="1" stop-color="#EBEBEB" stop-opacity="0"/></radialGradient></defs></svg>