<svg xmlns="http://www.w3.org/2000/svg" width="40" height="40" fill="none"><path stroke="#B2B2B2" stroke-linecap="round" stroke-linejoin="round" stroke-width="1.5" d="M13.5 22.5H12A2.5 2.5 0 009.5 25v0a2.5 2.5 0 002.5 2.5h1.5"/><rect width="2" height="3" x="18" y="14" fill="#39393D" rx=".5"/><rect width="5.25" height="4.25" x="16.38" y="10.38" fill="url(#paint0_linear)" stroke="url(#paint1_linear)" stroke-width=".75" rx=".63"/><path fill="url(#paint2_linear)" stroke="url(#paint3_linear)" stroke-width=".75" d="M11.38 5c0-.9.72-1.63 1.62-1.63h17c.9 0 1.63.73 1.63 1.63v31c0 .35-.28.63-.63.63H9a.62.62 0 01-.63-.63v-3c0-.9.73-1.63 1.63-1.63h16c.76 0 1.38-.61 1.38-1.37V12c0-.76-.62-1.38-1.38-1.38H12a.62.62 0 01-.63-.62V5z"/><path fill="url(#paint4_linear)" d="M12 5.5a1 1 0 011-1h17a1 1 0 011 1V35a.5.5 0 01-.5.5h-21A.5.5 0 019 35v-1c0-1.1.9-2 2-2h16a1 1 0 001-1V11a1 1 0 00-1-1H12V5.5z"/><path fill="url(#paint5_linear)" d="M13.38 21c0-.35.27-.63.62-.63h10c.35 0 .63.28.63.63v7A2.63 2.63 0 0122 30.63h-6A2.63 2.63 0 0113.37 28v-7z"/><path fill="url(#paint6_radial)" d="M13.38 21c0-.35.27-.63.62-.63h10c.35 0 .63.28.63.63v7A2.63 2.63 0 0122 30.63h-6A2.63 2.63 0 0113.37 28v-7z"/><path stroke="url(#paint7_linear)" stroke-width=".75" d="M13.38 21c0-.35.27-.63.62-.63h10c.35 0 .63.28.63.63v7A2.63 2.63 0 0122 30.63h-6A2.63 2.63 0 0113.37 28v-7z"/><path fill="#B0B0B0" d="M17 11h1v3.25h-1z" opacity=".5"/><rect width="23.25" height="2.25" x="8.38" y="34.38" fill="url(#paint8_linear)" stroke="url(#paint9_linear)" stroke-width=".75" rx=".63"/><defs><linearGradient id="paint0_linear" x1="19" x2="19" y1="10" y2="15" gradientUnits="userSpaceOnUse"><stop offset=".02" stop-color="#5A5B61"/><stop offset=".93" stop-color="#47484C"/></linearGradient><linearGradient id="paint1_linear" x1="19" x2="19" y1="10" y2="15" gradientUnits="userSpaceOnUse"><stop stop-color="#47484C"/><stop offset="1" stop-color="#39393D"/></linearGradient><linearGradient id="paint2_linear" x1="19.58" x2="19.58" y1="4.17" y2="35.83" gradientUnits="userSpaceOnUse"><stop offset=".02" stop-color="#fff"/><stop offset=".89" stop-color="#DCDCDC"/><stop offset=".93" stop-color="#F5F3F1"/></linearGradient><linearGradient id="paint3_linear" x1="20" x2="20" y1="3" y2="37" gradientUnits="userSpaceOnUse"><stop stop-color="#C2C2C2"/><stop offset="1" stop-color="#A1A1A1"/></linearGradient><linearGradient id="paint4_linear" x1="20" x2="20" y1="4" y2="37" gradientUnits="userSpaceOnUse"><stop stop-color="#FAF8F7"/><stop offset="1" stop-color="#E6E6E6"/></linearGradient><linearGradient id="paint5_linear" x1="19.01" x2="19.01" y1="18.78" y2="31" gradientUnits="userSpaceOnUse"><stop offset=".02" stop-color="#fff"/><stop offset=".89" stop-color="#DCDCDC"/><stop offset=".93" stop-color="#F5F3F1"/></linearGradient><linearGradient id="paint7_linear" x1="19" x2="19" y1="20" y2="31" gradientUnits="userSpaceOnUse"><stop stop-color="#C2C2C2"/><stop offset="1" stop-color="#A1A1A1"/></linearGradient><linearGradient id="paint8_linear" x1="20" x2="20" y1="34" y2="37" gradientUnits="userSpaceOnUse"><stop offset=".02" stop-color="#5A5B61"/><stop offset=".93" stop-color="#47484C"/></linearGradient><linearGradient id="paint9_linear" x1="20" x2="20" y1="34" y2="37" gradientUnits="userSpaceOnUse"><stop offset=".13" stop-color="#EBE9E7"/><stop offset=".18" stop-color="#47484C"/><stop offset="1" stop-color="#39393D"/></linearGradient><radialGradient id="paint6_radial" cx="0" cy="0" r="1" gradientTransform="rotate(76.65 -6.42 20.75) scale(16.2389 9.10951)" gradientUnits="userSpaceOnUse"><stop offset=".14" stop-color="#EBE9E7"/><stop offset=".68" stop-color="#C9C9C9" stop-opacity=".79"/><stop offset="1" stop-color="#EBE9E7" stop-opacity="0"/></radialGradient></defs></svg>