<svg xmlns="http://www.w3.org/2000/svg" width="40" height="40" fill="none"><path fill="url(#paint0_linear)" stroke="url(#paint1_linear)" stroke-width=".75" d="M35.58 30.28a8.12 8.12 0 01-8.01 6.47H13.33a8.22 8.22 0 01-8.08-6.7c2.79 1.34 8.62 2.25 15.37 2.25 6.45 0 12.05-.78 14.96-2.02z"/><path fill="url(#paint2_linear)" d="M35.83 30.22v1.23s-.07 5.46-8.57 5.46H13.57c-8.5 0-8.57-5.46-8.57-5.46V11.81a.5.5 0 01.49-.49h29.85a.5.5 0 01.49.49v18.23"/><path stroke="url(#paint3_linear)" stroke-linecap="round" stroke-width=".75" d="M35.83 30.22v1.23s-.07 5.46-8.57 5.46H13.57c-8.5 0-8.57-5.46-8.57-5.46V11.81a.5.5 0 01.49-.49h29.85a.5.5 0 01.49.49v18.23"/><path stroke="#fff" stroke-width=".75" d="M25.49 26.75H15.37A5.38 5.38 0 0110 21.37v-8.62h20.86v8.62c0 2.97-2.4 5.38-5.37 5.38z"/><path fill="url(#paint4_linear)" stroke="url(#paint5_linear)" stroke-width=".77" d="M25.47 26.08H15.36c-2.97 0-5.38-2.54-5.38-5.67v-9.09h20.87v9.09c0 3.13-2.41 5.67-5.38 5.67z"/><path fill="#B1B1B1" d="M15.62 23.86a1.05 1.05 0 100-2.1 1.05 1.05 0 000 2.1z"/><path fill="#fff" d="M15.62 23.53a1.05 1.05 0 100-2.1 1.05 1.05 0 000 2.1z"/><path fill="#B1B1B1" d="M18.83 23.86a1.05 1.05 0 100-2.1 1.05 1.05 0 000 2.1z"/><path fill="#fff" d="M18.83 23.53a1.05 1.05 0 100-2.1 1.05 1.05 0 000 2.1z"/><path fill="#B1B1B1" d="M22.04 23.86a1.05 1.05 0 100-2.1 1.05 1.05 0 000 2.1z"/><path fill="#fff" d="M22.04 23.53a1.05 1.05 0 100-2.1 1.05 1.05 0 000 2.1z"/><path fill="#B1B1B1" d="M25.4 23.86a1.05 1.05 0 100-2.1 1.05 1.05 0 000 2.1z"/><path fill="#fff" d="M25.4 23.53a1.05 1.05 0 100-2.1 1.05 1.05 0 000 2.1z"/><path stroke="#fff" stroke-linecap="round" stroke-linejoin="round" stroke-width=".75" d="M5 29.24l.69.28c3.52 1.33 8.81 2.18 14.72 2.18 5.95 0 11.26-.86 14.78-2.2l.64-.26"/><path stroke="url(#paint6_linear)" stroke-linecap="round" stroke-width=".75" d="M35.83 30.22v1.23s-.07 5.46-8.57 5.46H13.57c-8.5 0-8.57-5.46-8.57-5.46V11.81a.5.5 0 01.49-.49h29.85a.5.5 0 01.49.49v18.23"/><path fill="url(#paint7_linear)" stroke="url(#paint8_linear)" stroke-width=".75" d="M25.46 20.09H15.37a.98.98 0 01-.98-.98v-4.3c0-.54.44-.98.98-.98h10.09c.54 0 .98.44.98.99v4.29c0 .54-.44.98-.98.98z"/><path fill="url(#paint9_linear)" stroke="url(#paint10_linear)" stroke-linecap="round" stroke-width=".75" d="M20.41 4C7.52 4 5.12 11.32 5.12 11.32H35.7S33.3 4 20.41 4z"/><path fill="url(#paint11_radial)" d="M33.54 10.24H7.33c2.12-3.06 7.1-5.14 12.7-5.14h.8c5.61 0 10.59 2.08 12.71 5.14z"/><path fill="url(#paint12_linear)" stroke="url(#paint13_linear)" stroke-width=".75" d="M35.83 30.33v1.12s-.07 5.46-8.57 5.46H13.57c-8.5 0-8.57-5.46-8.57-5.46v-1.39c3.25 1.31 8.94 2.18 15.41 2.18 6.48 0 12.18-.87 15.42-2.18v.27z"/><path fill="#fff" stroke="url(#paint14_linear)" stroke-width=".75" d="M27.3 7.4c.08 0 .13-.1.08-.16-.4-.51-2.06-2.11-6.97-2.11v0c-4.9 0-6.56 1.6-6.96 2.12-.05.06 0 .15.08.15h6.89v0h6.88z"/><defs><linearGradient id="paint0_linear" x1="5.25" x2="35.58" y1="33.4" y2="33.4" gradientUnits="userSpaceOnUse"><stop offset=".02" stop-color="#5A5B61"/><stop offset=".93" stop-color="#47484C"/></linearGradient><linearGradient id="paint1_linear" x1="20.42" x2="20.42" y1="29.39" y2="37.12" gradientUnits="userSpaceOnUse"><stop offset=".18" stop-color="#47484C"/><stop offset="1" stop-color="#39393D"/></linearGradient><linearGradient id="paint2_linear" x1="5" x2="35.83" y1="24.11" y2="24.11" gradientUnits="userSpaceOnUse"><stop offset=".02" stop-color="#fff"/><stop offset=".5" stop-color="#DCDCDC"/><stop offset="1" stop-color="#F5F3F1"/></linearGradient><linearGradient id="paint3_linear" x1="20.41" x2="20.41" y1="10.94" y2="37.28" gradientUnits="userSpaceOnUse"><stop stop-color="#C2C2C2"/><stop offset="1" stop-color="#A1A1A1"/></linearGradient><linearGradient id="paint4_linear" x1="9.98" x2="30.85" y1="18.7" y2="18.7" gradientUnits="userSpaceOnUse"><stop offset=".02" stop-color="#fff"/><stop offset=".5" stop-color="#DCDCDC"/><stop offset="1" stop-color="#F5F3F1"/></linearGradient><linearGradient id="paint5_linear" x1="20.41" x2="20.41" y1="26.46" y2="10.93" gradientUnits="userSpaceOnUse"><stop stop-color="#C2C2C2"/><stop offset="1" stop-color="#A1A1A1"/></linearGradient><linearGradient id="paint6_linear" x1="20.41" x2="20.41" y1="10.94" y2="37.28" gradientUnits="userSpaceOnUse"><stop stop-color="#C2C2C2"/><stop offset="1" stop-color="#A1A1A1"/></linearGradient><linearGradient id="paint7_linear" x1="20.41" x2="20.41" y1="13.83" y2="20.09" gradientUnits="userSpaceOnUse"><stop offset=".02" stop-color="#5A5B61"/><stop offset=".93" stop-color="#47484C"/></linearGradient><linearGradient id="paint8_linear" x1="20.41" x2="20.41" y1="14.27" y2="19.65" gradientUnits="userSpaceOnUse"><stop stop-color="#47484C"/><stop offset="1" stop-color="#39393D"/></linearGradient><linearGradient id="paint9_linear" x1="20.41" x2="20.41" y1="4" y2="11.32" gradientUnits="userSpaceOnUse"><stop offset=".02" stop-color="#5A5B61"/><stop offset=".93" stop-color="#47484C"/></linearGradient><linearGradient id="paint10_linear" x1="20.41" x2="20.41" y1="3.63" y2="11.69" gradientUnits="userSpaceOnUse"><stop stop-color="#47484C"/><stop offset="1" stop-color="#39393D"/></linearGradient><linearGradient id="paint12_linear" x1="5" x2="35.83" y1="33.49" y2="33.49" gradientUnits="userSpaceOnUse"><stop offset=".02" stop-color="#5A5B61"/><stop offset=".93" stop-color="#47484C"/></linearGradient><linearGradient id="paint13_linear" x1="20.42" x2="20.42" y1="29.5" y2="37.29" gradientUnits="userSpaceOnUse"><stop offset=".18" stop-color="#47484C"/><stop offset="1" stop-color="#39393D"/></linearGradient><linearGradient id="paint14_linear" x1="13.05" x2="27.78" y1="6.26" y2="6.26" gradientUnits="userSpaceOnUse"><stop stop-color="#47484C"/><stop offset="1" stop-color="#39393D"/></linearGradient><radialGradient id="paint11_radial" cx="0" cy="0" r="1" gradientTransform="matrix(0 -10.28 26.5902 0 20.43 15.38)" gradientUnits="userSpaceOnUse"><stop offset=".54" stop-color="#616369" stop-opacity="0"/><stop offset=".91" stop-color="#8B8B8B"/><stop offset=".96" stop-color="#616369" stop-opacity="0"/></radialGradient></defs></svg>