<svg width="40" height="40" fill="none" xmlns="http://www.w3.org/2000/svg"><rect x="8.375" y="3.375" width="23.25" height="33.25" rx="1.625" fill="url(#paint0_linear)" stroke="url(#paint1_linear)" stroke-width=".75"/><rect x="9.5" y="4.5" width="21" height="31" rx="1" fill="url(#paint2_linear)"/><path d="M17 30a1 1 0 0 1 1-1h4a1 1 0 0 1 1 1v1h-6v-1zM16 17h8v5a4 4 0 0 1-8 0v-5z" fill="#5A5B61"/><path d="M20 30v-5" stroke="#5A5B61" stroke-width="2" stroke-linecap="round" stroke-linejoin="round"/><path d="M31.25 12.25H8.747" stroke="#fff" stroke-width=".75" stroke-linejoin="round"/><path d="M31.5 11.5h-23" stroke="#BBB" stroke-width=".75" stroke-linecap="round" stroke-linejoin="round"/><path d="M23 8.5h1M27 8.5h1" stroke="#B1B1B1" stroke-width="2" stroke-linecap="round" stroke-linejoin="round"/><path d="M23 8h1M27 8h1" stroke="#fff" stroke-width="2" stroke-linecap="round" stroke-linejoin="round"/><path d="M15 8.5h1M19 8.5h1" stroke="#B1B1B1" stroke-width="2" stroke-linecap="round" stroke-linejoin="round"/><path d="M15 8h1M19 8h1" stroke="#fff" stroke-width="2" stroke-linecap="round" stroke-linejoin="round"/><defs><linearGradient id="paint0_linear" x1="20" y1="3" x2="20" y2="37" gradientUnits="userSpaceOnUse"><stop offset=".016" stop-color="#fff"/><stop offset=".885" stop-color="#DCDCDC"/><stop offset=".932" stop-color="#F5F3F1"/></linearGradient><linearGradient id="paint1_linear" x1="20" y1="3" x2="20" y2="37" gradientUnits="userSpaceOnUse"><stop stop-color="#C2C2C2"/><stop offset="1" stop-color="#A1A1A1"/></linearGradient><linearGradient id="paint2_linear" x1="20" y1="4.5" x2="20" y2="35.5" gradientUnits="userSpaceOnUse"><stop stop-color="#FAF8F7"/><stop offset="1" stop-color="#E6E6E6"/></linearGradient></defs></svg>