<svg xmlns="http://www.w3.org/2000/svg" width="40" height="40" fill="none"><path fill="url(#paint0_linear)" d="M14.91 15.52c.1-.1.24-.14.39-.14h9.4c.14 0 .28.05.38.14 3.45 3.07 5.98 9.17 6.46 16.47a.6.6 0 01-.61.64H9.07a.6.6 0 01-.62-.64c.48-7.3 3.01-13.4 6.46-16.47z"/><path fill="url(#paint1_radial)" fill-opacity=".5" d="M14.91 15.52c.1-.1.24-.14.39-.14h9.4c.14 0 .28.05.38.14 3.45 3.07 5.98 9.17 6.46 16.47a.6.6 0 01-.61.64H9.07a.6.6 0 01-.62-.64c.48-7.3 3.01-13.4 6.46-16.47z"/><path stroke="url(#paint2_linear)" stroke-width=".75" d="M14.91 15.52c.1-.1.24-.14.39-.14h9.4c.14 0 .28.05.38.14 3.45 3.07 5.98 9.17 6.46 16.47a.6.6 0 01-.61.64H9.07a.6.6 0 01-.62-.64c.48-7.3 3.01-13.4 6.46-16.47z"/><path fill="#67A4FF" d="M20 28c1.38 0 2.5-1.05 2.5-2.45 0-1.45-1.17-2.8-2.5-4.55-1.33 1.75-2.5 3.1-2.5 4.55 0 1.4 1.12 2.45 2.5 2.45z"/><path stroke="#AECFFF" stroke-linecap="round" stroke-linejoin="round" stroke-width="2" d="M13 12h0m14 0h0m-7 1h0m3-4h0m-6 0h0m3-4h0m-6 0h0m12 0h0"/><rect width="23.25" height="4.25" x="8.38" y="32.38" fill="url(#paint3_linear)" stroke="url(#paint4_linear)" stroke-width=".75" rx=".63"/><defs><linearGradient id="paint0_linear" x1="20.01" x2="20.01" y1="13" y2="33" gradientUnits="userSpaceOnUse"><stop offset=".02" stop-color="#fff"/><stop offset=".89" stop-color="#DCDCDC"/><stop offset=".93" stop-color="#F5F3F1"/></linearGradient><linearGradient id="paint2_linear" x1="20" x2="20" y1="15" y2="33" gradientUnits="userSpaceOnUse"><stop stop-color="#C2C2C2"/><stop offset="1" stop-color="#A1A1A1"/></linearGradient><linearGradient id="paint3_linear" x1="20" x2="20" y1="32" y2="37" gradientUnits="userSpaceOnUse"><stop offset=".02" stop-color="#5A5B61"/><stop offset=".93" stop-color="#47484C"/></linearGradient><linearGradient id="paint4_linear" x1="20" x2="20" y1="32" y2="37" gradientUnits="userSpaceOnUse"><stop offset=".13" stop-color="#EBE9E7"/><stop offset=".18" stop-color="#47484C"/><stop offset="1" stop-color="#39393D"/></linearGradient><radialGradient id="paint1_radial" cx="0" cy="0" r="1" gradientTransform="matrix(0 -21.5 11.5011 0 20 32)" gradientUnits="userSpaceOnUse"><stop offset=".28" stop-color="#EBE9E7"/><stop offset=".76" stop-color="#C9C9C9"/><stop offset="1" stop-color="#EBE9E7" stop-opacity="0"/></radialGradient></defs></svg>