<svg xmlns="http://www.w3.org/2000/svg" width="40" height="40" fill="none"><path stroke="#5A5B61" stroke-linecap="round" stroke-linejoin="round" stroke-miterlimit="10" stroke-width=".75" d="M21.1 20.13l2.59-.34"/><path fill="url(#paint0_linear)" stroke="url(#paint1_linear)" stroke-linecap="round" stroke-linejoin="round" stroke-width=".75" d="M36.8 22.76l-3.84-10.07a1 1 0 00-.94-.64h-7.7s-6.22-.09-10.6 4.3C9.34 20.73 4 26.89 4 26.89h26.84s.93-4.6 5.41-3.52c.36.09.68-.26.55-.61zm-8.33-3.8c-.49.86-1.11 1.08-2.24 1.47-.52.18-1.28.4-3.22.58-1.28.12-2.57.23-4.27.1-1.72-.13-2.58-.2-2.79-.64-.36-.8.74-1.84 1.22-2.32a11.33 11.33 0 014.68-2.68 9.63 9.63 0 014-.62c1.21.1 2.11.2 2.68 1.11.57.9.48 2.07-.06 3z"/><path fill="url(#paint2_linear)" d="M36.8 22.7l-3.84-10.06a1 1 0 00-.94-.64h-7.7s-6.22-.09-10.6 4.3A243.54 243.54 0 004 26.82h26.84s.93-4.59 5.41-3.51c.36.09.68-.27.55-.62zm-8.33-3.8c-.49.87-1.11 1.09-2.24 1.48-.52.18-1.28.4-3.22.58-1.28.12-2.57.23-4.27.1-1.72-.13-2.58-.2-2.79-.65-.36-.78.74-1.84 1.22-2.3a11.33 11.33 0 014.68-2.7 9.63 9.63 0 014-.62c1.21.11 2.11.2 2.68 1.12.57.9.48 2.07-.06 3z"/><path stroke="#47484D" stroke-linecap="round" stroke-linejoin="round" stroke-miterlimit="10" stroke-width=".9" d="M18.2 13.23l-2.03.17s-.58.04-.56.29l.07.79 2.52-1.25z"/><path fill="#A1A1A1" d="M17.71 13.04l-1.7.22s-.52.03-.5.25l.05.68 2.15-1.15z" opacity=".13"/><path stroke="#47484D" stroke-linecap="round" stroke-linejoin="round" stroke-miterlimit="10" stroke-width=".75" d="M20.74 20.6l3.56-.46"/><path stroke="#fff" stroke-miterlimit="10" stroke-width=".75" d="M28.91 16.89c.26.78.11 1.68-.31 2.43-.5.86-1.12 1.08-2.25 1.48-.51.17-1.28.4-3.22.58a23.3 23.3 0 01-4.27.1c-1.72-.14-2.58-.2-2.79-.65a.81.81 0 01-.05-.48"/><path fill="url(#paint3_linear)" d="M14.12 15.91l-.04.28a8.9 8.9 0 01-4.09 6l-3.54 1.67"/><path fill="#fff" d="M12.9 16.88l-.03.19a6.18 6.18 0 01-2.72 4.16L7.78 22.4" opacity=".14"/><path stroke="url(#paint4_linear)" stroke-linecap="round" stroke-linejoin="round" stroke-width=".75" d="M4 27.64h26.84"/><path fill="url(#paint5_linear)" d="M4 26.89l26.62.38c-.19-.2.3-2.75 1.92-3.47C13.23 23.83 4 26.89 4 26.89z"/><path stroke="url(#paint6_linear)" stroke-linecap="round" stroke-linejoin="round" stroke-width=".75" d="M28.47 18.95c-.49.87-1.11 1.09-2.24 1.48-.52.18-1.28.4-3.22.58-1.28.12-2.57.23-4.27.1-1.72-.13-2.58-.2-2.79-.64-.36-.8.74-1.84 1.22-2.32a11.33 11.33 0 014.68-2.68 9.63 9.63 0 014-.62c1.21.1 2.11.2 2.68 1.11.57.9.48 2.07-.06 3zm8.33 3.8L32.96 12.7a1 1 0 00-.94-.64h-7.7s-6.22-.09-10.6 4.3C9.34 20.73 4 26.89 4 26.89h26.84s.93-4.6 5.41-3.52c.36.09.68-.26.55-.61z"/><defs><linearGradient id="paint0_linear" x1="20.42" x2="20.42" y1="12.05" y2="26.89" gradientUnits="userSpaceOnUse"><stop offset=".02" stop-color="#fff"/><stop offset=".89" stop-color="#DCDCDC"/><stop offset=".93" stop-color="#F5F3F1"/></linearGradient><linearGradient id="paint1_linear" x1="3.63" x2="37.21" y1="19.47" y2="19.47" gradientUnits="userSpaceOnUse"><stop stop-color="#C2C2C2"/><stop offset="1" stop-color="#A1A1A1"/></linearGradient><linearGradient id="paint2_linear" x1="20.42" x2="20.42" y1="26.83" y2="12" gradientUnits="userSpaceOnUse"><stop stop-color="#FAF8F7"/><stop offset="1" stop-color="#E6E6E6"/></linearGradient><linearGradient id="paint3_linear" x1="6.35" x2="14.22" y1="19.98" y2="19.79" gradientUnits="userSpaceOnUse"><stop stop-color="#C2C2C2"/><stop offset="1" stop-color="#A1A1A1"/></linearGradient><linearGradient id="paint4_linear" x1="-nan" x2="-nan" y1="-nan" y2="-nan" gradientUnits="userSpaceOnUse"><stop stop-color="#47484C"/><stop offset="1" stop-color="#39393D"/></linearGradient><linearGradient id="paint5_linear" x1="18.22" x2="18.41" y1="24.32" y2="27.91" gradientUnits="userSpaceOnUse"><stop stop-color="#A1A1A1"/><stop offset="1" stop-color="#CECECE" stop-opacity="0"/></linearGradient><linearGradient id="paint6_linear" x1="3.63" x2="37.21" y1="19.47" y2="19.47" gradientUnits="userSpaceOnUse"><stop stop-color="#C2C2C2"/><stop offset="1" stop-color="#A1A1A1"/></linearGradient></defs></svg>