<svg width="48" height="48" viewBox="0 0 48 48" fill="none" xmlns="http://www.w3.org/2000/svg">
    <path d="M21 41L21.8944 40.5528C21.725 40.214 21.3788 40 21 40V41ZM27 41V40C26.6212 40 26.275 40.214 26.1056 40.5528L27 41ZM21.4472 41.8944L22.3416 41.4472L21.4472 41.8944ZM26.5528 41.8944L25.6584 41.4472L26.5528 41.8944ZM16.181 26.1032L16.8329 25.3449L16.181 26.1032ZM29.8994 29.3079L28.9023 29.2312L29.8994 29.3079ZM31.819 26.1032L32.471 26.8615L31.819 26.1032ZM35 17C35 20.3369 33.5154 23.326 31.1671 25.3449L32.471 26.8615C35.2423 24.4789 37 20.9442 37 17H35ZM24 6C30.0751 6 35 10.9249 35 17H37C37 9.8203 31.1797 4 24 4V6ZM13 17C13 10.9249 17.9249 6 24 6V4C16.8203 4 11 9.8203 11 17H13ZM16.8329 25.3449C14.4846 23.326 13 20.3369 13 17H11C11 20.9442 12.7577 24.4789 15.529 26.8615L16.8329 25.3449ZM21 40H20.8521V42H21V40ZM27.1479 40H27V42H27.1479V40ZM26.1056 40.5528L25.6584 41.4472L27.4472 42.3416L27.8944 41.4472L26.1056 40.5528ZM24.7639 42H23.2361V44H24.7639V42ZM22.3416 41.4472L21.8944 40.5528L20.1056 41.4472L20.5528 42.3416L22.3416 41.4472ZM19.855 39.0767L19.0977 29.2312L17.1036 29.3846L17.8609 39.2301L19.855 39.0767ZM28.9023 29.2312L28.145 39.0767L30.1391 39.2301L30.8964 29.3846L28.9023 29.2312ZM19.0977 29.2312C19.0157 28.1657 18.5888 27.156 17.8817 26.3548L16.3822 27.6782C16.8017 28.1535 17.0549 28.7525 17.1036 29.3846L19.0977 29.2312ZM23.2361 42C22.8573 42 22.511 41.786 22.3416 41.4472L20.5528 42.3416C21.061 43.358 22.0998 44 23.2361 44V42ZM25.6584 41.4472C25.489 41.786 25.1427 42 24.7639 42V44C25.9002 44 26.939 43.358 27.4472 42.3416L25.6584 41.4472ZM20.8521 40C20.3295 40 19.8951 39.5977 19.855 39.0767L17.8609 39.2301C17.9811 40.7931 19.2845 42 20.8521 42V40ZM15.529 26.8615C15.8518 27.139 16.1369 27.4002 16.3822 27.6782L17.8817 26.3548C17.5447 25.9729 17.1774 25.6411 16.8329 25.3449L15.529 26.8615ZM27.1479 42C28.7155 42 30.0189 40.7931 30.1391 39.2301L28.145 39.0767C28.1049 39.5977 27.6705 40 27.1479 40V42ZM30.1183 26.3548C29.4112 27.156 28.9843 28.1657 28.9023 29.2312L30.8964 29.3846C30.9451 28.7525 31.1983 28.1535 31.6178 27.6782L30.1183 26.3548ZM31.1671 25.3449C30.8226 25.6411 30.4553 25.9729 30.1183 26.3548L31.6178 27.6782C31.8631 27.4002 32.1482 27.139 32.471 26.8615L31.1671 25.3449Z" fill="purple"/>
    <path d="M19 31H29" stroke="purple" stroke-width="2" stroke-linecap="round" stroke-linejoin="round"/>
    <path d="M19 35H29" stroke="purple" stroke-width="2" stroke-linecap="round" stroke-linejoin="round"/>
    <path d="M19 39H29" stroke="purple" stroke-width="2" stroke-linecap="round" stroke-linejoin="round"/>
</svg>