<svg xmlns="http://www.w3.org/2000/svg" width="40" height="40" fill="none"><path fill="#C4C4C4" d="M22.04 35h-4.08l.23.67c.27.82.84 1.33 1.46 1.33h.7c.62 0 1.19-.51 1.46-1.33l.23-.67z"/><path fill="url(#paint0_radial)" d="M22.04 35h-4.08l.23.67c.27.82.84 1.33 1.46 1.33h.7c.62 0 1.19-.51 1.46-1.33l.23-.67z"/><path fill="url(#paint1_linear)" stroke="#5A5E61" stroke-linecap="round" stroke-linejoin="round" stroke-width=".75" d="M17.96 35.62h0c-.57 0-1.08-.46-1.14-1.11l-.4-4.13h7.17l-.41 4.13c-.06.65-.57 1.1-1.13 1.1l-.7.01h-3.39z"/><rect width="7.69" height="3" x="16.16" y="28.84" fill="#4A4B4F" opacity=".5" rx="1"/><path fill="url(#paint2_radial)" d="M15.38 29a6.8 6.8 0 00-.64-2.54c-.38-.9-.9-1.84-1.44-2.76a107.58 107.58 0 00-1.6-2.67c-.5-.83-.92-1.57-1.16-2.16l-.51-1.5h19.94l-.54 1.5c-.23.59-.64 1.33-1.14 2.17l-.72 1.18-.9 1.49c-.55.92-1.08 1.87-1.47 2.76a6.64 6.64 0 00-.65 2.53v2.01a.7.7 0 01-.7.61h-7.72a.7.7 0 01-.7-.61l-.05-2.02z"/><path fill="url(#paint3_radial)" d="M15.38 29a6.8 6.8 0 00-.64-2.54c-.38-.9-.9-1.84-1.44-2.76a107.58 107.58 0 00-1.6-2.67c-.5-.83-.92-1.57-1.16-2.16l-.51-1.5h19.94l-.54 1.5c-.23.59-.64 1.33-1.14 2.17l-.72 1.18-.9 1.49c-.55.92-1.08 1.87-1.47 2.76a6.64 6.64 0 00-.65 2.53v2.01a.7.7 0 01-.7.61h-7.72a.7.7 0 01-.7-.61l-.05-2.02z"/><path fill="url(#paint4_radial)" d="M15.38 29a6.8 6.8 0 00-.64-2.54c-.38-.9-.9-1.84-1.44-2.76a107.58 107.58 0 00-1.6-2.67c-.5-.83-.92-1.57-1.16-2.16l-.51-1.5h19.94l-.54 1.5c-.23.59-.64 1.33-1.14 2.17l-.72 1.18-.9 1.49c-.55.92-1.08 1.87-1.47 2.76a6.64 6.64 0 00-.65 2.53v2.01a.7.7 0 01-.7.61h-7.72a.7.7 0 01-.7-.61l-.05-2.02z"/><path stroke="url(#paint5_linear)" stroke-linecap="round" stroke-linejoin="round" stroke-width=".75" d="M15.38 29a6.8 6.8 0 00-.64-2.54c-.38-.9-.9-1.84-1.44-2.76a107.58 107.58 0 00-1.6-2.67c-.5-.83-.92-1.57-1.16-2.16l-.51-1.5h19.94l-.54 1.5c-.23.59-.64 1.33-1.14 2.17l-.72 1.18-.9 1.49c-.55.92-1.08 1.87-1.47 2.76a6.64 6.64 0 00-.65 2.53v2.01a.7.7 0 01-.7.61h-7.72a.7.7 0 01-.7-.61l-.05-2.02z"/><path fill="url(#paint6_radial)" stroke="#C2C2C2" stroke-width=".75" d="M30.63 14c0 1.66-.38 3.23-1.06 4.63H10.43A10.63 10.63 0 1130.63 14z"/><circle cx="20" cy="10" r="5" fill="url(#paint7_linear)"/><defs><radialGradient id="paint0_radial" cx="0" cy="0" r="1" gradientTransform="matrix(0 2 -1.95798 0 20 35)" gradientUnits="userSpaceOnUse"><stop offset=".22" stop-color="#817E7E"/><stop offset=".65" stop-color="#48494D"/><stop offset=".89" stop-color="#535458"/></radialGradient><radialGradient id="paint2_radial" cx="0" cy="0" r="1" gradientTransform="matrix(0 12.5664 -5.80166 0 20 18.13)" gradientUnits="userSpaceOnUse"><stop stop-color="#F8F8F8"/><stop offset="1" stop-color="#CECECE"/></radialGradient><radialGradient id="paint3_radial" cx="0" cy="0" r="1" gradientTransform="matrix(0 6 -9.21473 0 20 19)" gradientUnits="userSpaceOnUse"><stop offset=".43" stop-color="#EBE9E7"/><stop offset=".89" stop-color="#EBE9E7" stop-opacity="0"/></radialGradient><radialGradient id="paint4_radial" cx="0" cy="0" r="1" gradientTransform="matrix(0 -6.5 5.375 0 20 31.5)" gradientUnits="userSpaceOnUse"><stop offset=".38" stop-color="#EBE9E7"/><stop offset=".9" stop-color="#EBE9E7" stop-opacity="0"/></radialGradient><radialGradient id="paint6_radial" cx="0" cy="0" r="1" gradientTransform="matrix(0 -11 11 0 20 14)" gradientUnits="userSpaceOnUse"><stop offset=".23" stop-color="#fff"/><stop offset=".86" stop-color="#EBE9E7"/></radialGradient><linearGradient id="paint1_linear" x1="16.38" x2="23.63" y1="33.73" y2="33.73" gradientUnits="userSpaceOnUse"><stop stop-color="#fff"/><stop offset=".19" stop-color="#B6B6B6"/><stop offset=".24" stop-color="#39393D"/><stop offset=".34" stop-color="#47484C"/><stop offset=".44" stop-color="#fff"/><stop offset=".57" stop-color="#fff"/><stop offset=".68" stop-color="#47484C"/><stop offset=".75" stop-color="#39393D"/><stop offset=".83" stop-color="#B6B6B6"/><stop offset="1" stop-color="#fff"/></linearGradient><linearGradient id="paint5_linear" x1="20" x2="20" y1="19" y2="32" gradientUnits="userSpaceOnUse"><stop stop-color="#C2C2C2"/><stop offset="1" stop-color="#A1A1A1"/></linearGradient><linearGradient id="paint7_linear" x1="20" x2="20" y1="5" y2="15" gradientUnits="userSpaceOnUse"><stop stop-color="#fff"/><stop offset="1" stop-color="#fff" stop-opacity="0"/></linearGradient></defs></svg>