<svg width="40" height="40" fill="none" xmlns="http://www.w3.org/2000/svg"><path d="M10.5 32h-4a.5.5 0 0 1-.5-.5v-2a.5.5 0 0 1 .5-.5h4a.5.5 0 0 1 .5.5v2a.5.5 0 0 1-.5.5zM33.5 32h-4a.5.5 0 0 1-.5-.5v-2a.5.5 0 0 1 .5-.5h4a.5.5 0 0 1 .5.5v2a.5.5 0 0 1-.5.5z" fill="#39393D"/><rect x="3.375" y="10.375" width="33.25" height="19.25" rx="1.625" fill="url(#paint0_linear)" stroke="url(#paint1_linear)" stroke-width=".75"/><rect x="4.5" y="11.5" width="31" height="17" rx="1" fill="url(#paint2_linear)"/><circle opacity=".8" cx="30.5" cy="21.5" r="6.5" fill="url(#paint3_radial)"/><path d="M26.375 19.5a4.125 4.125 0 1 1 8.25 0 4.125 4.125 0 0 1-8.25 0z" fill="#EBE9E7" stroke="url(#paint4_linear)" stroke-width=".75"/><circle cx="32.5" cy="17.5" r=".5" fill="#39393D"/><path d="M7 23.5h1M11 23.5h1M15 23.5h1M19 23.5h1" stroke="#B1B1B1" stroke-width="2" stroke-linecap="round" stroke-linejoin="round"/><path d="M7 23h1M11 23h1M15 23h1M19 23h1" stroke="#fff" stroke-width="2" stroke-linecap="round" stroke-linejoin="round"/><mask id="a" fill="#fff"><rect x="6" y="16" width="15" height="5" rx=".5"/></mask><rect x="6" y="16" width="15" height="5" rx=".5" fill="url(#paint5_linear)" stroke="url(#paint6_linear)" stroke-width="1.5" mask="url(#a)"/><defs><linearGradient id="paint0_linear" x1="20" y1="10" x2="20" y2="30" gradientUnits="userSpaceOnUse"><stop offset=".016" stop-color="#fff"/><stop offset=".885" stop-color="#DCDCDC"/><stop offset=".932" stop-color="#F5F3F1"/></linearGradient><linearGradient id="paint1_linear" x1="20" y1="10" x2="20" y2="30" gradientUnits="userSpaceOnUse"><stop stop-color="#C2C2C2"/><stop offset="1" stop-color="#A1A1A1"/></linearGradient><linearGradient id="paint2_linear" x1="20" y1="11.5" x2="20" y2="28.5" gradientUnits="userSpaceOnUse"><stop stop-color="#FAF8F7"/><stop offset="1" stop-color="#E6E6E6"/></linearGradient><radialGradient id="paint3_radial" cx="0" cy="0" r="1" gradientUnits="userSpaceOnUse" gradientTransform="rotate(90 4.5 26) scale(6.5)"><stop stop-color="#39393D"/><stop offset=".573" stop-color="#39393D" stop-opacity=".25"/><stop offset=".672" stop-color="#39393D" stop-opacity=".15"/><stop offset=".74" stop-color="#39393D" stop-opacity=".11"/><stop offset=".828" stop-color="#39393D" stop-opacity=".05"/><stop offset=".922" stop-color="#39393D" stop-opacity=".021"/><stop offset="1" stop-color="#39393D" stop-opacity="0"/></radialGradient><linearGradient id="paint4_linear" x1="30.5" y1="15" x2="30.5" y2="24" gradientUnits="userSpaceOnUse"><stop offset=".297" stop-color="#fff"/><stop offset=".635" stop-color="#B1B1B1"/></linearGradient><linearGradient id="paint5_linear" x1="13.5" y1="16" x2="13.5" y2="21" gradientUnits="userSpaceOnUse"><stop offset=".016" stop-color="#5A5B61"/><stop offset=".932" stop-color="#47484C"/></linearGradient><linearGradient id="paint6_linear" x1="13.5" y1="16" x2="13.5" y2="21" gradientUnits="userSpaceOnUse"><stop stop-color="#47484C"/><stop offset="1" stop-color="#39393D"/></linearGradient></defs></svg>