<svg width="40" height="40" fill="none" xmlns="http://www.w3.org/2000/svg"><path d="M30.375 9c0-.345.28-.625.625-.625h5c.345 0 .625.28.625.625v22c0 .345-.28.625-.625.625h-5a.625.625 0 0 1-.625-.625V9z" fill="url(#paint0_linear)" stroke="url(#paint1_linear)" stroke-width=".75"/><circle cx="33.5" cy="18.5" r="3.125" fill="#47484C"/><circle cx="33.5" cy="18.5" r="3.125" fill="url(#paint2_radial)"/><circle cx="33.5" cy="18.5" r="3.125" stroke="#39393D" stroke-width=".75"/><circle cx="35" cy="10" r="1" fill="#ED514C"/><rect x="5.375" y="12.375" width="19.25" height="19.25" rx="1.625" fill="url(#paint3_linear)" stroke="url(#paint4_linear)" stroke-width=".75"/><rect x="6.5" y="13.5" width="17" height="17" rx="1" fill="url(#paint5_linear)"/><path d="M12.5 19.5v5M16 19.5l1.5 5 1.5-5M14 19.5h-3" stroke="#B0B0B0" stroke-linecap="round" stroke-linejoin="round"/><defs><linearGradient id="paint0_linear" x1="33.5" y1="8" x2="33.5" y2="32" gradientUnits="userSpaceOnUse"><stop offset=".464" stop-color="#5A5B61"/><stop offset="1" stop-color="#39393D"/></linearGradient><linearGradient id="paint1_linear" x1="33.5" y1="8" x2="33.5" y2="32" gradientUnits="userSpaceOnUse"><stop stop-color="#47484C"/><stop offset="1" stop-color="#39393D"/></linearGradient><radialGradient id="paint2_radial" cx="0" cy="0" r="1" gradientUnits="userSpaceOnUse" gradientTransform="matrix(0 4.5 -3.69324 0 33.5 18)"><stop offset=".365" stop-color="#616369" stop-opacity="0"/><stop offset=".906" stop-color="#8B8B8B"/><stop offset=".964" stop-color="#616369" stop-opacity="0"/></radialGradient><linearGradient id="paint3_linear" x1="15" y1="12" x2="15" y2="32" gradientUnits="userSpaceOnUse"><stop offset=".016" stop-color="#fff"/><stop offset=".885" stop-color="#DCDCDC"/><stop offset=".932" stop-color="#F5F3F1"/></linearGradient><linearGradient id="paint4_linear" x1="15" y1="12" x2="15" y2="32" gradientUnits="userSpaceOnUse"><stop stop-color="#C2C2C2"/><stop offset="1" stop-color="#A1A1A1"/></linearGradient><linearGradient id="paint5_linear" x1="15" y1="13.5" x2="15" y2="30.5" gradientUnits="userSpaceOnUse"><stop stop-color="#FAF8F7"/><stop offset="1" stop-color="#E6E6E6"/></linearGradient></defs></svg>