<svg xmlns="http://www.w3.org/2000/svg" width="40" height="40" fill="none"><path stroke="url(#paint0_linear)" stroke-linecap="round" stroke-linejoin="round" stroke-width="1.5" d="M17 29.3l-5 .7"/><path stroke="url(#paint1_linear)" stroke-linecap="round" stroke-linejoin="round" stroke-width="1.5" d="M17 29.3l5 .7"/><path fill="url(#paint2_linear)" d="M15 27h4v2h-4z"/><path fill="url(#paint3_linear)" stroke="url(#paint4_linear)" stroke-width=".75" d="M3.38 8.73c0-.2.15-.36.36-.36h26.52c.2 0 .36.17.36.36v17.54c0 .2-.15.36-.36.36H3.74a.36.36 0 01-.37-.36V8.73z"/><path fill="url(#paint5_linear)" d="M4 9h26v16H4z"/><path fill="url(#paint6_linear)" d="M30 9H4l26 16V9z" opacity=".1"/><rect width="9.25" height="15.25" x="25.38" y="19.38" fill="url(#paint7_linear)" stroke="url(#paint8_linear)" stroke-width=".75" rx="1.63"/><rect width="8" height="14" x="26" y="20" fill="url(#paint9_linear)" rx="1"/><circle cx="30" cy="29" r="3.63" fill="url(#paint10_linear)" stroke="url(#paint11_linear)" stroke-width=".75"/><circle cx="30" cy="22" r="2" fill="#fff"/><circle cx="30" cy="29" r="3" fill="#5A5B61"/><circle cx="30" cy="29" r="1.5" fill="#39393D"/><circle cx="30" cy="28.5" r=".5" fill="#5A5B61"/><circle cx="30" cy="22" r="1" fill="#39393D"/><defs><linearGradient id="paint1_linear" x1="19.5" x2="19.5" y1="29.18" y2="30" gradientUnits="userSpaceOnUse"><stop stop-color="#B6B6B6"/><stop offset="1" stop-color="#CECECE"/></linearGradient><linearGradient id="paint6_linear" x1="17" x2="17" y1="9" y2="25" gradientUnits="userSpaceOnUse"><stop stop-color="#fff"/><stop offset="1" stop-color="#fff" stop-opacity="0"/></linearGradient><linearGradient id="paint2_linear" x1="17" x2="17" y1="27" y2="29" gradientUnits="userSpaceOnUse"><stop stop-color="#5A5B61"/><stop offset="1" stop-color="#B6B6B6"/></linearGradient><linearGradient id="paint3_linear" x1="17" x2="17" y1="8" y2="27" gradientUnits="userSpaceOnUse"><stop offset=".02" stop-color="#fff"/><stop offset=".89" stop-color="#DCDCDC"/><stop offset=".93" stop-color="#F5F3F1"/></linearGradient><linearGradient id="paint4_linear" x1="17" x2="17" y1="8" y2="27" gradientUnits="userSpaceOnUse"><stop stop-color="#C2C2C2"/><stop offset="1" stop-color="#A1A1A1"/></linearGradient><linearGradient id="paint5_linear" x1="17" x2="17" y1="9" y2="25" gradientUnits="userSpaceOnUse"><stop stop-color="#47484C"/><stop offset="1" stop-color="#39393D"/></linearGradient><linearGradient id="paint0_linear" x1="14.5" x2="14.5" y1="29.18" y2="30" gradientUnits="userSpaceOnUse"><stop stop-color="#B6B6B6"/><stop offset="1" stop-color="#CECECE"/></linearGradient><linearGradient id="paint7_linear" x1="30" x2="30" y1="19" y2="35" gradientUnits="userSpaceOnUse"><stop offset=".02" stop-color="#fff"/><stop offset=".89" stop-color="#DCDCDC"/><stop offset=".93" stop-color="#F5F3F1"/></linearGradient><linearGradient id="paint8_linear" x1="30" x2="30" y1="19" y2="35" gradientUnits="userSpaceOnUse"><stop stop-color="#CECECE"/><stop offset="1" stop-color="#B5B5B5"/></linearGradient><linearGradient id="paint9_linear" x1="30" x2="30" y1="20" y2="34" gradientUnits="userSpaceOnUse"><stop stop-color="#FAF8F7"/><stop offset="1" stop-color="#E6E6E6"/></linearGradient><linearGradient id="paint10_linear" x1="30" x2="30" y1="25" y2="33" gradientUnits="userSpaceOnUse"><stop offset=".02" stop-color="#fff"/><stop offset=".89" stop-color="#DCDCDC"/><stop offset=".93" stop-color="#F5F3F1"/></linearGradient><linearGradient id="paint11_linear" x1="30" x2="30" y1="25" y2="33" gradientUnits="userSpaceOnUse"><stop stop-color="#CECECE"/><stop offset="1" stop-color="#B5B5B5"/></linearGradient></defs></svg>