<svg xmlns="http://www.w3.org/2000/svg" width="40" height="40" fill="none"><path stroke="url(#paint0_linear)" stroke-linecap="round" stroke-linejoin="round" stroke-width="1.5" d="M20 34.3L13 36"/><path stroke="url(#paint1_linear)" stroke-linecap="round" stroke-linejoin="round" stroke-width="1.5" d="M20 34.3l7 1.7"/><path fill="url(#paint2_linear)" d="M18 32h4v2h-4z"/><path fill="url(#paint3_linear)" stroke="url(#paint4_linear)" stroke-width=".75" d="M3.38 8.92c0-.31.24-.54.51-.54h32.22c.27 0 .52.23.52.54v22.16c0 .31-.25.55-.52.55H3.89a.53.53 0 01-.52-.55V8.92z"/><path fill="url(#paint5_linear)" d="M4 9.85c0-.47.38-.85.84-.85h30.32c.46 0 .84.38.84.85v20.3c0 .47-.38.85-.84.85H4.84a.84.84 0 01-.84-.85V9.85z"/><path fill="url(#paint6_linear)" d="M4 9h32v21H4z"/><path fill="url(#paint7_linear)" d="M36 9H4l32 21V9z" opacity=".1"/><defs><linearGradient id="paint0_linear" x1="16.5" x2="16.5" y1="34" y2="36" gradientUnits="userSpaceOnUse"><stop stop-color="#B6B6B6"/><stop offset="1" stop-color="#CECECE"/></linearGradient><linearGradient id="paint1_linear" x1="23.5" x2="23.5" y1="34" y2="36" gradientUnits="userSpaceOnUse"><stop stop-color="#B6B6B6"/><stop offset="1" stop-color="#CECECE"/></linearGradient><linearGradient id="paint2_linear" x1="20" x2="20" y1="32" y2="34" gradientUnits="userSpaceOnUse"><stop stop-color="#5A5B61"/><stop offset="1" stop-color="#B6B6B6"/></linearGradient><linearGradient id="paint3_linear" x1="20" x2="20" y1="8" y2="32" gradientUnits="userSpaceOnUse"><stop offset=".02" stop-color="#fff"/><stop offset=".89" stop-color="#DCDCDC"/><stop offset=".93" stop-color="#F5F3F1"/></linearGradient><linearGradient id="paint4_linear" x1="20" x2="20" y1="8" y2="32" gradientUnits="userSpaceOnUse"><stop stop-color="#C2C2C2"/><stop offset="1" stop-color="#A1A1A1"/></linearGradient><linearGradient id="paint5_linear" x1="20" x2="20" y1="9" y2="31" gradientUnits="userSpaceOnUse"><stop stop-color="#F9F9FA"/><stop offset="1" stop-color="#F7F7F7"/></linearGradient><linearGradient id="paint6_linear" x1="20" x2="20" y1="9" y2="30" gradientUnits="userSpaceOnUse"><stop stop-color="#47484C"/><stop offset="1" stop-color="#39393D"/></linearGradient><linearGradient id="paint7_linear" x1="20" x2="20" y1="9" y2="30" gradientUnits="userSpaceOnUse"><stop stop-color="#fff"/><stop offset="1" stop-color="#fff" stop-opacity="0"/></linearGradient></defs></svg>