<svg xmlns="http://www.w3.org/2000/svg" width="40" height="40" fill="none"><path fill="url(#paint0_linear)" d="M9.93 31.37l.17.33-.17-.33-.15.07a.62.62 0 01-.56 0l-.1-.05c-.4-.2-.85-.2-1.23 0l-.11.05a.62.62 0 01-.56 0l-.1-.05c-.4-.2-.85-.2-1.23 0l.16.33-.16-.33-.19.09a.62.62 0 01-.47.03l-.86-.28V10.37h8.25v20.88l-.64.25a.62.62 0 01-.46 0l-.46-.18a1.37 1.37 0 00-1.13.05z"/><path fill="url(#paint1_linear)" d="M9.93 31.37l.17.33-.17-.33-.15.07a.62.62 0 01-.56 0l-.1-.05c-.4-.2-.85-.2-1.23 0l-.11.05a.62.62 0 01-.56 0l-.1-.05c-.4-.2-.85-.2-1.23 0l.16.33-.16-.33-.19.09a.62.62 0 01-.47.03l-.86-.28V10.37h8.25v20.88l-.64.25a.62.62 0 01-.46 0l-.46-.18a1.37 1.37 0 00-1.13.05z"/><path stroke="url(#paint2_linear)" stroke-linecap="round" stroke-linejoin="round" stroke-width=".75" d="M9.93 31.37l.17.33-.17-.33-.15.07a.62.62 0 01-.56 0l-.1-.05c-.4-.2-.85-.2-1.23 0l-.11.05a.62.62 0 01-.56 0l-.1-.05c-.4-.2-.85-.2-1.23 0l.16.33-.16-.33-.19.09a.62.62 0 01-.47.03l-.86-.28V10.37h8.25v20.88l-.64.25a.62.62 0 01-.46 0l-.46-.18a1.37 1.37 0 00-1.13.05z"/><path fill="url(#paint3_linear)" d="M32.93 31.37l.17.33-.17-.33-.15.07a.62.62 0 01-.56 0l-.1-.05c-.4-.2-.85-.2-1.23 0l-.11.05a.62.62 0 01-.56 0l-.1-.05c-.4-.2-.85-.2-1.23 0l.16.33-.16-.33-.19.09a.62.62 0 01-.47.03l-.86-.28V10.37h8.25v20.88l-.64.25a.62.62 0 01-.46 0l-.46-.18a1.38 1.38 0 00-1.13.05z"/><path fill="url(#paint4_linear)" d="M32.93 31.37l.17.33-.17-.33-.15.07a.62.62 0 01-.56 0l-.1-.05c-.4-.2-.85-.2-1.23 0l-.11.05a.62.62 0 01-.56 0l-.1-.05c-.4-.2-.85-.2-1.23 0l.16.33-.16-.33-.19.09a.62.62 0 01-.47.03l-.86-.28V10.37h8.25v20.88l-.64.25a.62.62 0 01-.46 0l-.46-.18a1.38 1.38 0 00-1.13.05z"/><path stroke="url(#paint5_linear)" stroke-linecap="round" stroke-linejoin="round" stroke-width=".75" d="M32.93 31.37l.17.33-.17-.33-.15.07a.62.62 0 01-.56 0l-.1-.05c-.4-.2-.85-.2-1.23 0l-.11.05a.62.62 0 01-.56 0l-.1-.05c-.4-.2-.85-.2-1.23 0l.16.33-.16-.33-.19.09a.62.62 0 01-.47.03l-.86-.28V10.37h8.25v20.88l-.64.25a.62.62 0 01-.46 0l-.46-.18a1.38 1.38 0 00-1.13.05z"/><path stroke="#fff" stroke-linecap="round" stroke-linejoin="round" stroke-width="2" d="M4.17 9.17h31.66"/><rect width="33.25" height="2.25" x="3.38" y="8.38" fill="url(#paint6_linear)" stroke="url(#paint7_linear)" stroke-width=".75" rx=".63"/><defs><linearGradient id="paint0_linear" x1="8.69" x2="8.69" y1="11.16" y2="31.84" gradientUnits="userSpaceOnUse"><stop stop-color="#C9C9C9"/><stop offset=".19" stop-color="#fff"/><stop offset="1" stop-color="#EBE9E7"/></linearGradient><linearGradient id="paint1_linear" x1="12" x2="5" y1="21" y2="21" gradientUnits="userSpaceOnUse"><stop stop-color="#EBE9E7" stop-opacity="0"/><stop offset=".21" stop-color="#B0B0B0"/><stop offset=".36" stop-color="#EBE9E7" stop-opacity="0"/><stop offset=".5" stop-color="#B0B0B0"/><stop offset=".64" stop-color="#EBE9E7" stop-opacity="0"/><stop offset=".79" stop-color="#B0B0B0"/><stop offset="1" stop-color="#EBE9E7" stop-opacity="0"/></linearGradient><linearGradient id="paint2_linear" x1="8.5" x2="8.5" y1="10" y2="32" gradientUnits="userSpaceOnUse"><stop stop-color="#C2C2C2"/><stop offset="1" stop-color="#A1A1A1"/></linearGradient><linearGradient id="paint3_linear" x1="31.69" x2="31.69" y1="11.16" y2="31.84" gradientUnits="userSpaceOnUse"><stop stop-color="#C9C9C9"/><stop offset=".19" stop-color="#fff"/><stop offset="1" stop-color="#EBE9E7"/></linearGradient><linearGradient id="paint4_linear" x1="35" x2="28" y1="21" y2="21" gradientUnits="userSpaceOnUse"><stop stop-color="#EBE9E7" stop-opacity="0"/><stop offset=".21" stop-color="#B0B0B0"/><stop offset=".36" stop-color="#EBE9E7" stop-opacity="0"/><stop offset=".5" stop-color="#B0B0B0"/><stop offset=".64" stop-color="#EBE9E7" stop-opacity="0"/><stop offset=".79" stop-color="#B0B0B0"/><stop offset="1" stop-color="#EBE9E7" stop-opacity="0"/></linearGradient><linearGradient id="paint5_linear" x1="31.5" x2="31.5" y1="10" y2="32" gradientUnits="userSpaceOnUse"><stop stop-color="#C2C2C2"/><stop offset="1" stop-color="#A1A1A1"/></linearGradient><linearGradient id="paint6_linear" x1="20" x2="20" y1="8" y2="11" gradientUnits="userSpaceOnUse"><stop offset=".02" stop-color="#5A5B61"/><stop offset=".93" stop-color="#47484C"/></linearGradient><linearGradient id="paint7_linear" x1="20" x2="20" y1="8" y2="11" gradientUnits="userSpaceOnUse"><stop stop-color="#47484C"/><stop offset="1" stop-color="#39393D"/></linearGradient></defs></svg>