<svg xmlns="http://www.w3.org/2000/svg" width="40" height="40" fill="none"><path stroke="#6839CF" stroke-linecap="round" stroke-linejoin="round" stroke-width="2" d="M10 9.11a13.75 13.75 0 0120-.02" opacity=".4"/><path stroke="#6839CF" stroke-linecap="round" stroke-linejoin="round" stroke-width="2" d="M13.75 12.25A9.66 9.66 0 0120 9.75a9.6 9.6 0 016.25 2.5" opacity=".7"/><path fill="url(#paint0_linear)" stroke="url(#paint1_linear)" stroke-width=".75" d="M29.38 22.7c.16.12.25.3.25.5V34c0 .35-.28.63-.63.63H11a.62.62 0 01-.63-.63V23.2c0-.2.1-.38.25-.5l9-6.93a.62.62 0 01.76 0l9 6.93z"/><mask id="a" fill="#fff"><rect width="7" height="7" x="13" y="25" rx=".5"/></mask><rect width="7" height="7" x="13" y="25" fill="#67A4FF" stroke="url(#paint2_linear)" stroke-width="1.5" mask="url(#a)" rx=".5"/><path fill="url(#paint3_linear)" d="M16 25h1v7h-1z"/><path fill="#525358" d="M16 28h4v1h-4z"/><path fill="#A1A1A1" stroke="#5A5B61" stroke-width=".75" d="M22.38 25.5c0-.07.05-.13.12-.13h4c.07 0 .13.06.13.13v9c0 .07-.06.13-.13.13h-4a.13.13 0 01-.13-.13v-9z"/><path stroke="#6839CF" stroke-linecap="round" stroke-linejoin="round" stroke-width="2" d="M9 24l10.36-8.7a1 1 0 011.28 0L31 24"/><defs><linearGradient id="paint0_linear" x1="20" x2="20" y1="13" y2="33.9" gradientUnits="userSpaceOnUse"><stop offset=".02" stop-color="#C2C2C2"/><stop offset=".47" stop-color="#EBE9E7"/><stop offset="1" stop-color="#fff"/></linearGradient><linearGradient id="paint1_linear" x1="20" x2="20" y1="13" y2="35" gradientUnits="userSpaceOnUse"><stop stop-color="#C2C2C2"/><stop offset="1" stop-color="#A1A1A1"/></linearGradient><linearGradient id="paint2_linear" x1="16.5" x2="16.5" y1="25" y2="32" gradientUnits="userSpaceOnUse"><stop stop-color="#39393D"/><stop offset="0" stop-color="#5A5B61"/><stop offset="1" stop-color="#47484C"/></linearGradient><linearGradient id="paint3_linear" x1="16.5" x2="16.5" y1="25" y2="32" gradientUnits="userSpaceOnUse"><stop stop-color="#39393D"/><stop offset="0" stop-color="#5A5B61"/><stop offset="1" stop-color="#47484C"/></linearGradient></defs></svg>