<svg xmlns="http://www.w3.org/2000/svg" width="40" height="40" fill="none"><circle cx="20" cy="20" r="10" stroke="#fff" stroke-width="2"/><path stroke="#fff" stroke-linecap="round" stroke-linejoin="round" stroke-width="2" d="M20 10v1.67m0 16.66V30"/><circle cx="16.25" cy="20" r="1.25" fill="#fff"/><circle cx="23.75" cy="20" r="1.25" fill="#fff"/><path fill="url(#paint0_linear)" stroke="url(#paint1_linear)" stroke-width=".75" d="M4.38 8C4.38 6 6 4.37 8 4.37h24c2 0 3.63 1.63 3.63 3.63v24c0 2-1.63 3.63-3.63 3.63H8C6 35.63 4.37 34 4.37 32V8z"/><path fill="url(#paint2_linear)" d="M5.5 8.5c0-1.66 1.3-3 2.9-3h23.2c1.6 0 2.9 1.34 2.9 3v23c0 1.66-1.3 3-2.9 3H8.4c-1.6 0-2.9-1.34-2.9-3v-23z"/><circle cx="20" cy="20" r="10" fill="url(#paint3_radial)" stroke="url(#paint4_linear)" stroke-width=".75" transform="rotate(-180 20 20)"/><circle cx="15.5" cy="20" r="1.5" fill="#39393D"/><circle cx="24.5" cy="20" r="1.5" fill="#39393D"/><defs><linearGradient id="paint0_linear" x1="20" x2="20" y1="4" y2="36" gradientUnits="userSpaceOnUse"><stop offset=".02" stop-color="#fff"/><stop offset=".89" stop-color="#DCDCDC"/><stop offset=".93" stop-color="#F5F3F1"/></linearGradient><linearGradient id="paint1_linear" x1="20" x2="20" y1="4" y2="36" gradientUnits="userSpaceOnUse"><stop stop-color="#C2C2C2"/><stop offset="1" stop-color="#A1A1A1"/></linearGradient><linearGradient id="paint2_linear" x1="20" x2="20" y1="5.5" y2="34.5" gradientUnits="userSpaceOnUse"><stop stop-color="#FAF8F7"/><stop offset="1" stop-color="#E6E6E6"/></linearGradient><linearGradient id="paint4_linear" x1="20" x2="20" y1="10" y2="30" gradientUnits="userSpaceOnUse"><stop offset=".22" stop-color="#fff"/><stop offset=".37" stop-color="#EBE9E7"/><stop offset=".67" stop-color="#B6B6B6"/></linearGradient><radialGradient id="paint3_radial" cx="0" cy="0" r="1" gradientTransform="matrix(0 18.5 -18.5595 0 20 11.5)" gradientUnits="userSpaceOnUse"><stop offset=".64" stop-color="#DFDEDD"/><stop offset="1" stop-color="#CECECE"/></radialGradient></defs></svg>