<svg xmlns="http://www.w3.org/2000/svg" width="40" height="40" fill="none"><rect width="33.25" height="16.25" x="3.38" y="8.38" fill="url(#paint0_linear)" stroke="url(#paint1_linear)" stroke-width=".75" rx="2.63"/><rect width="32" height="15" x="4" y="9" fill="url(#paint2_linear)" rx="3"/><path fill="#6839CF" d="M32 12a1 1 0 112 0 1 1 0 01-2 0z"/><rect width="27" height="2" x="6.5" y="21.5" fill="url(#paint3_linear)" stroke="url(#paint4_linear)" rx="1"/><path stroke="#AECFFF" stroke-linecap="round" stroke-linejoin="round" stroke-width="2" d="M13 34l.37-.74c.38-.75.23-1.66-.37-2.26-.6-.6-.74-1.5-.37-2.26L13 28m7 6l.37-.74c.38-.75.23-1.66-.37-2.26-.6-.6-.74-1.5-.37-2.26L20 28m7 6l.37-.74c.38-.75.23-1.66-.37-2.26-.6-.6-.74-1.5-.37-2.26L27 28"/><defs><linearGradient id="paint0_linear" x1="20" x2="20" y1="8" y2="25" gradientUnits="userSpaceOnUse"><stop offset=".02" stop-color="#fff"/><stop offset=".89" stop-color="#DCDCDC"/><stop offset=".93" stop-color="#F5F3F1"/></linearGradient><linearGradient id="paint1_linear" x1="20" x2="20" y1="8" y2="25" gradientUnits="userSpaceOnUse"><stop stop-color="#C2C2C2"/><stop offset="1" stop-color="#A1A1A1"/></linearGradient><linearGradient id="paint2_linear" x1="20" x2="20" y1="9" y2="24" gradientUnits="userSpaceOnUse"><stop stop-color="#FAF8F7"/><stop offset=".13" stop-color="#fff"/><stop offset=".18" stop-color="#E2E1E0"/><stop offset=".46" stop-color="#EAE8E7"/><stop offset="1" stop-color="#E6E6E6"/></linearGradient><linearGradient id="paint3_linear" x1="15.92" x2="15.92" y1="24" y2="21" gradientUnits="userSpaceOnUse"><stop stop-color="#5A5B61"/><stop offset="1" stop-color="#47484C"/></linearGradient><linearGradient id="paint4_linear" x1="20" x2="20" y1="21" y2="24" gradientUnits="userSpaceOnUse"><stop offset=".34" stop-color="#39393D"/><stop offset=".86" stop-color="#fff"/></linearGradient></defs></svg>