<svg width="48" height="48" viewBox="0 0 48 48" fill="none" xmlns="http://www.w3.org/2000/svg">
    <path d="M17.3676 39.2649L18.262 39.7121L18.262 39.7121L17.3676 39.2649ZM16.1056 39.5528C15.8586 40.0468 16.0588 40.6474 16.5528 40.8944C17.0468 41.1414 17.6475 40.9412 17.8945 40.4472L16.1056 39.5528ZM17.8945 34.4472C18.1415 33.9532 17.9412 33.3526 17.4473 33.1056C16.9533 32.8586 16.3526 33.0588 16.1056 33.5528L17.8945 34.4472ZM16.6325 34.7351L17.5269 35.1823L16.6325 34.7351ZM24.3676 39.2649L25.262 39.7121V39.7121L24.3676 39.2649ZM23.1056 39.5528C22.8586 40.0468 23.0588 40.6474 23.5528 40.8944C24.0468 41.1414 24.6475 40.9412 24.8945 40.4472L23.1056 39.5528ZM24.8945 34.4472C25.1415 33.9532 24.9412 33.3526 24.4473 33.1056C23.9533 32.8586 23.3526 33.0588 23.1056 33.5528L24.8945 34.4472ZM23.6325 34.7351L22.7381 34.2879V34.2879L23.6325 34.7351ZM31.3676 39.2649L30.4732 38.8177L31.3676 39.2649ZM30.1056 39.5528C29.8586 40.0468 30.0588 40.6474 30.5528 40.8944C31.0468 41.1414 31.6475 40.9412 31.8945 40.4472L30.1056 39.5528ZM31.8945 34.4472C32.1415 33.9532 31.9412 33.3526 31.4473 33.1056C30.9533 32.8586 30.3526 33.0588 30.1056 33.5528L31.8945 34.4472ZM30.6325 34.7351L29.7381 34.2879V34.2879L30.6325 34.7351ZM16.4732 38.8177L16.1056 39.5528L17.8945 40.4472L18.262 39.7121L16.4732 38.8177ZM16.1056 33.5528L15.7381 34.2879L17.5269 35.1823L17.8945 34.4472L16.1056 33.5528ZM15.7381 34.2879C15.1679 35.4283 15.3914 36.8056 16.2929 37.7071L17.7071 36.2929C17.4143 36.0001 17.3417 35.5527 17.5269 35.1823L15.7381 34.2879ZM18.262 39.7121C18.8322 38.5717 18.6087 37.1944 17.7071 36.2929L16.2929 37.7071C16.5858 37.9999 16.6584 38.4473 16.4732 38.8177L18.262 39.7121ZM23.4732 38.8177L23.1056 39.5528L24.8945 40.4472L25.262 39.7121L23.4732 38.8177ZM23.1056 33.5528L22.7381 34.2879L24.5269 35.1823L24.8945 34.4472L23.1056 33.5528ZM22.7381 34.2879C22.1679 35.4283 22.3914 36.8056 23.2929 37.7071L24.7071 36.2929C24.4143 36.0001 24.3417 35.5527 24.5269 35.1823L22.7381 34.2879ZM25.262 39.7121C25.8322 38.5717 25.6087 37.1944 24.7071 36.2929L23.2929 37.7071C23.5858 37.9999 23.6584 38.4473 23.4732 38.8177L25.262 39.7121ZM30.4732 38.8177L30.1056 39.5528L31.8945 40.4472L32.262 39.7121L30.4732 38.8177ZM30.1056 33.5528L29.7381 34.2879L31.5269 35.1823L31.8945 34.4472L30.1056 33.5528ZM29.7381 34.2879C29.1679 35.4283 29.3914 36.8056 30.2929 37.7071L31.7071 36.2929C31.4143 36.0001 31.3417 35.5527 31.5269 35.1823L29.7381 34.2879ZM32.262 39.7121C32.8322 38.5717 32.6087 37.1944 31.7071 36.2929L30.2929 37.7071C30.5858 37.9999 30.6584 38.4473 30.4732 38.8177L32.262 39.7121Z" fill="purple"/>
    <path d="M5 12C5 11.4477 5.44772 11 6 11H42C42.5523 11 43 11.4477 43 12V28C43 28.5523 42.5523 29 42 29H6C5.44772 29 5 28.5523 5 28V12Z" stroke="purple" stroke-width="2"/>
    <path d="M36 15C36 14.4477 36.4477 14 37 14H38C38.5523 14 39 14.4477 39 15C39 15.5523 38.5523 16 38 16H37C36.4477 16 36 15.5523 36 15Z" fill="purple"/>
    <path d="M9 25C9 24.4477 9.44772 24 10 24H38C38.5523 24 39 24.4477 39 25C39 25.5523 38.5523 26 38 26H10C9.44772 26 9 25.5523 9 25Z" fill="purple"/>
</svg>
