<svg xmlns="http://www.w3.org/2000/svg" width="40" height="40" fill="none"><path stroke="#47484C" stroke-linecap="round" stroke-linejoin="round" d="M32.5 10l1.67-2.5m0 4.17l2.5-.84M7.5 10L5.83 7.5m0 4.17l-2.5-.84"/><circle cx="20" cy="20" r="16.63" fill="url(#paint0_linear)" stroke="url(#paint1_linear)" stroke-width=".75"/><circle cx="20" cy="20" r="15.5" fill="url(#paint2_linear)"/><circle cx="20" cy="20.75" r="12.63" stroke="#fff" stroke-linecap="round" stroke-linejoin="round" stroke-width=".75" opacity=".6"/><circle cx="20" cy="20" r="12.63" stroke="url(#paint3_linear)" stroke-linecap="round" stroke-linejoin="round" stroke-width=".75"/><circle cx="20" cy="27.5" r=".75" fill="#000" fill-opacity=".8"/><circle cx="16.5" cy="27.5" r=".75" fill="#000" fill-opacity=".8"/><circle cx="23.5" cy="27.5" r=".75" fill="#000" fill-opacity=".8"/><path stroke="#C9C9C9" stroke-linecap="round" stroke-linejoin="round" stroke-width=".75" d="M16.83 15.5H8.5m23 0h-8.33"/><circle cx="20" cy="17" r="8" fill="url(#paint4_radial)" opacity=".8"/><path fill="#EBE9E7" stroke="url(#paint5_linear)" stroke-width=".75" d="M15.38 15a4.63 4.63 0 119.25 0 4.63 4.63 0 01-9.25 0z"/><defs><linearGradient id="paint0_linear" x1="20" x2="20" y1="3" y2="37" gradientUnits="userSpaceOnUse"><stop offset=".02" stop-color="#fff"/><stop offset=".58" stop-color="#DCDCDC"/><stop offset=".93" stop-color="#F5F3F1"/></linearGradient><linearGradient id="paint1_linear" x1="20" x2="20" y1="3" y2="37" gradientUnits="userSpaceOnUse"><stop stop-color="#C2C2C2"/><stop offset="1" stop-color="#A1A1A1"/></linearGradient><linearGradient id="paint2_linear" x1="20" x2="20" y1="4.5" y2="35.5" gradientUnits="userSpaceOnUse"><stop stop-color="#FAF8F7"/><stop offset="1" stop-color="#E6E6E6"/></linearGradient><linearGradient id="paint3_linear" x1="20" x2="20" y1="7" y2="33" gradientUnits="userSpaceOnUse"><stop stop-color="#C2C2C2"/><stop offset="1" stop-color="#A1A1A1"/></linearGradient><linearGradient id="paint5_linear" x1="20" x2="20" y1="10" y2="20" gradientUnits="userSpaceOnUse"><stop offset=".3" stop-color="#fff"/><stop offset=".64" stop-color="#B1B1B1"/></linearGradient><radialGradient id="paint4_radial" cx="0" cy="0" r="1" gradientTransform="matrix(0 8 -8 0 20 17)" gradientUnits="userSpaceOnUse"><stop stop-color="#39393D"/><stop offset=".57" stop-color="#39393D" stop-opacity=".25"/><stop offset=".67" stop-color="#39393D" stop-opacity=".15"/><stop offset=".74" stop-color="#39393D" stop-opacity=".11"/><stop offset=".83" stop-color="#39393D" stop-opacity=".05"/><stop offset=".92" stop-color="#39393D" stop-opacity=".02"/><stop offset="1" stop-color="#39393D" stop-opacity="0"/></radialGradient></defs></svg>