<svg xmlns="http://www.w3.org/2000/svg" width="40" height="40" fill="none"><rect width="23.25" height="33.25" x="8.38" y="3.38" fill="url(#paint0_linear)" stroke="url(#paint1_linear)" stroke-width=".75" rx="1.63"/><rect width="21" height="31" x="9.5" y="4.5" fill="url(#paint2_linear)" rx="1"/><path stroke="#B1B1B1" stroke-linecap="round" stroke-linejoin="round" stroke-width="2" d="M23 8.5h1m3 0h1"/><path stroke="#fff" stroke-linecap="round" stroke-linejoin="round" stroke-width="2" d="M23 8h1m3 0h1"/><mask id="a" fill="#fff"><rect width="7" height="6" x="11" y="3" rx=".5"/></mask><rect width="7" height="6" x="11" y="3" fill="url(#paint3_linear)" stroke="url(#paint4_linear)" stroke-width="1.5" mask="url(#a)" rx=".5"/><path fill="url(#paint5_linear)" stroke="url(#paint6_linear)" stroke-width=".75" d="M11.38 24a8.62 8.62 0 1117.24 0 8.62 8.62 0 01-17.25 0z"/><path fill="url(#paint7_radial)" d="M27.5 24c0 4.14-3.17 7.5-7.08 7.5h-.84c-3.9 0-7.08-3.36-7.08-7.5 0-4.14 3.17-7.5 7.08-7.5h.84c3.9 0 7.08 3.36 7.08 7.5z" opacity=".5"/><path fill="url(#paint8_radial)" d="M14 23c0-3.31 2.54-6 5.67-6h.66c3.13 0 5.67 2.69 5.67 6s-2.54 6-5.67 6h-.66C16.54 29 14 26.31 14 23z" opacity=".3"/><path stroke="#fff" stroke-linejoin="round" stroke-width=".75" d="M31.25 12H8.75"/><path stroke="#C3C3C3" stroke-linecap="round" stroke-linejoin="round" stroke-width=".75" d="M31.5 11.25h-23"/><defs><linearGradient id="paint0_linear" x1="20" x2="20" y1="3" y2="37" gradientUnits="userSpaceOnUse"><stop offset=".02" stop-color="#fff"/><stop offset=".89" stop-color="#DCDCDC"/><stop offset=".93" stop-color="#F5F3F1"/></linearGradient><linearGradient id="paint1_linear" x1="20" x2="20" y1="3" y2="37" gradientUnits="userSpaceOnUse"><stop stop-color="#C2C2C2"/><stop offset="1" stop-color="#A1A1A1"/></linearGradient><linearGradient id="paint2_linear" x1="20" x2="20" y1="4.5" y2="35.5" gradientUnits="userSpaceOnUse"><stop stop-color="#FAF8F7"/><stop offset="1" stop-color="#E6E6E6"/></linearGradient><linearGradient id="paint3_linear" x1="14.5" x2="14.5" y1="3" y2="9" gradientUnits="userSpaceOnUse"><stop offset=".02" stop-color="#fff"/><stop offset=".89" stop-color="#DCDCDC"/><stop offset=".93" stop-color="#F5F3F1"/></linearGradient><linearGradient id="paint4_linear" x1="14.5" x2="14.5" y1="3" y2="9" gradientUnits="userSpaceOnUse"><stop stop-color="#C9C9C9"/><stop offset="1" stop-color="#B0B0B0"/></linearGradient><linearGradient id="paint5_linear" x1="20" x2="20" y1="15" y2="33" gradientUnits="userSpaceOnUse"><stop offset=".02" stop-color="#5A5B61"/><stop offset=".93" stop-color="#47484C"/></linearGradient><linearGradient id="paint6_linear" x1="20" x2="20" y1="15" y2="33" gradientUnits="userSpaceOnUse"><stop stop-color="#47484C"/><stop offset="1" stop-color="#39393D"/></linearGradient><radialGradient id="paint7_radial" cx="0" cy="0" r="1" gradientTransform="matrix(0 -10.7143 16.8923 0 20 29.36)" gradientUnits="userSpaceOnUse"><stop stop-color="#fff"/><stop offset=".55" stop-color="#fff" stop-opacity=".15"/><stop offset=".55" stop-color="#fff" stop-opacity="0"/><stop offset=".96" stop-opacity="0"/></radialGradient><radialGradient id="paint8_radial" cx="0" cy="0" r="1" gradientTransform="matrix(0 -12.1316 16.9294 0 20 28.5)" gradientUnits="userSpaceOnUse"><stop offset=".71" stop-color="#fff" stop-opacity="0"/><stop offset=".71" stop-color="#fff" stop-opacity=".15"/><stop offset="1" stop-color="#fff"/></radialGradient></defs></svg>